<?xml version="1.0" standalone="no"?>
<!DOCTYPE svg PUBLIC "-//W3C//DTD SVG 20010904//EN"
 "http://www.w3.org/TR/2001/REC-SVG-20010904/DTD/svg10.dtd">
<svg version="1.0" xmlns="http://www.w3.org/2000/svg"
 width="554.000000pt" height="690.000000pt" viewBox="0 0 554.000000 690.000000"
 preserveAspectRatio="xMidYMid meet">

<g transform="translate(0.000000,690.000000) scale(0.100000,-0.100000)"
fill="#000000" stroke="none">
<path d="M3864 5385 c-70 -42 -130 -106 -144 -155 -5 -19 -10 -93 -10 -165 -1
-484 -127 -1458 -212 -1627 -23 -47 -67 -70 -191 -103 -234 -61 -681 -112
-1287 -146 -250 -14 -609 -8 -662 11 -73 26 -78 37 -78 165 0 151 8 201 101
675 84 427 109 590 109 730 0 188 -59 280 -207 325 -78 24 -124 19 -179 -17
-87 -59 -88 -64 -144 -574 -151 -1387 -263 -2177 -396 -2775 -40 -186 -54
-267 -54 -327 0 -44 3 -87 6 -96 5 -14 37 -16 254 -16 l248 0 11 78 c6 42 15
192 21 332 16 408 78 858 136 991 14 33 21 38 72 48 134 27 693 73 1107 91
127 5 347 19 490 30 482 37 531 29 565 -86 18 -60 -2 -339 -51 -724 -73 -575
-79 -625 -79 -692 l0 -68 258 0 259 0 11 38 c6 21 14 161 17 322 14 676 79
1468 164 2005 43 266 54 328 131 720 83 423 111 601 117 747 4 99 2 145 -7
165 -32 72 -151 133 -258 133 -49 0 -68 -6 -118 -35z"/>
</g>
</svg>
